<svg width="1102" height="294" viewBox="0 0 1102 294" fill="none" xmlns="http://www.w3.org/2000/svg">
<path d="M25.2579 176.805C8.41929 160.695 0 135.801 0 102.124C0 68.3555 8.41929 43.4162 25.2579 27.3058C42.1875 11.1044 67.5363 3.00364 101.305 3.00364H131.75C152.412 3.00364 170.661 8.37378 186.499 19.1141C202.427 29.8543 210.391 44.554 210.391 63.2129C210.391 68.5831 208.798 72.4514 205.613 74.8179C202.427 77.0934 199.332 78.2311 196.329 78.2311H180.082C171.708 78.2311 165.2 73.2251 160.558 63.2129C153.823 48.8319 142.627 41.6413 126.972 41.6413H102.67C82.7366 41.6413 69.2202 45.9193 62.1207 54.4751C55.0212 63.0309 51.4714 78.8682 51.4714 101.987C51.4714 125.106 55.0212 140.989 62.1207 149.636C69.2202 158.192 82.7366 162.469 102.67 162.469H129.839C145.494 162.469 156.644 155.279 163.289 140.898C167.931 130.795 174.484 125.743 182.949 125.743H199.196C200.834 125.743 202.563 126.107 204.384 126.835C206.295 127.473 208.207 129.065 210.118 131.614C212.121 134.071 213.122 137.166 213.122 140.898C213.122 159.557 205.203 174.257 189.366 184.997C173.528 195.646 155.279 200.971 134.618 200.971H101.305C67.5363 200.971 42.1875 192.915 25.2579 176.805Z" fill="#0745A1"/>
<path d="M231.357 186.772V16.7931C231.357 13.2433 232.631 10.2397 235.179 7.78215C237.728 5.32463 240.777 4.09587 244.327 4.09587H401.745C405.294 4.09587 408.298 5.37014 410.756 7.91868C413.304 10.4672 414.578 13.5164 414.578 17.0661V29.8998C414.578 33.4496 413.304 36.4987 410.756 39.0473C408.298 41.5048 405.294 42.7336 401.745 42.7336H282.828V82.4635H385.225C388.774 82.4635 391.778 83.7378 394.236 86.2863C396.784 88.7438 398.058 91.7475 398.058 95.2972V108.131C398.058 111.681 396.784 114.73 394.236 117.278C391.778 119.736 388.774 120.965 385.225 120.965H282.828V161.241H401.472C405.021 161.241 407.98 162.469 410.346 164.927C412.804 167.385 414.032 170.388 414.032 173.938V187.045C414.032 190.594 412.758 193.644 410.21 196.192C407.661 198.65 404.612 199.878 401.062 199.878H244.327C240.777 199.878 237.728 198.65 235.179 196.192C232.631 193.644 231.357 190.503 231.357 186.772Z" fill="#0745A1"/>
<path d="M439.7 187.045V17.0661C439.7 13.5164 440.929 10.4672 443.386 7.91868C445.844 5.37014 448.847 4.09587 452.397 4.09587H556.569C611.544 4.09587 639.032 29.4903 639.032 80.279C639.123 130.977 611.635 156.326 556.569 156.326H491.171V187.045C491.171 190.594 489.897 193.644 487.348 196.192C484.891 198.65 481.887 199.878 478.337 199.878H452.67C449.12 199.878 446.071 198.65 443.523 196.192C440.974 193.644 439.7 190.594 439.7 187.045ZM491.171 117.688H541.004C556.296 117.688 567.9 115.139 575.819 110.042C583.738 104.854 587.697 94.9332 587.697 80.279C587.697 65.5339 583.738 55.6128 575.819 50.5157C567.9 45.3276 556.296 42.7336 541.004 42.7336H491.171V117.688Z" fill="#0745A1"/>
<path d="M678.216 176.805C661.377 160.695 652.958 135.801 652.958 102.124C652.958 68.3555 661.377 43.4162 678.216 27.3058C695.146 11.1044 720.494 3.00364 754.263 3.00364H784.708C805.37 3.00364 823.619 8.37378 839.457 19.1141C855.385 29.8543 863.349 44.554 863.349 63.2129C863.349 68.5831 861.756 72.4514 858.571 74.8179C855.385 77.0934 852.29 78.2311 849.287 78.2311H833.04C824.666 78.2311 818.158 73.2251 813.516 63.2129C806.781 48.8319 795.585 41.6413 779.93 41.6413H755.628C735.695 41.6413 722.178 45.9193 715.079 54.4751C707.979 63.0309 704.429 78.8682 704.429 101.987C704.429 125.106 707.979 140.989 715.079 149.636C722.178 158.192 735.695 162.469 755.628 162.469H782.797C798.452 162.469 809.602 155.279 816.247 140.898C820.889 130.795 827.442 125.743 835.907 125.743H852.154C853.792 125.743 855.522 126.107 857.342 126.835C859.253 127.473 861.165 129.065 863.076 131.614C865.079 134.071 866.08 137.166 866.08 140.898C866.08 159.557 858.161 174.257 842.324 184.997C826.486 195.646 808.237 200.971 787.576 200.971H754.263C720.494 200.971 695.146 192.915 678.216 176.805Z" fill="#0745A1"/>
<path d="M909.496 179.672C890.837 163.289 881.508 137.394 881.508 101.987C881.508 66.5806 890.837 40.7311 909.496 24.4387C928.155 8.14623 955.461 0 991.413 0C1027.46 0 1054.76 8.14623 1073.33 24.4387C1091.99 40.7311 1101.32 66.5806 1101.32 101.987C1101.32 137.394 1091.99 163.289 1073.33 179.672C1054.76 195.965 1027.46 204.111 991.413 204.111C955.461 204.111 928.155 195.965 909.496 179.672ZM946.768 53.2463C937.575 64.1686 932.979 80.4611 932.979 102.124C932.979 123.695 937.575 139.942 946.768 150.865C956.052 161.696 970.934 167.111 991.413 167.111C1011.98 167.111 1026.87 161.696 1036.06 150.865C1045.25 139.942 1049.85 123.695 1049.85 102.124C1049.85 80.4611 1045.25 64.1686 1036.06 53.2463C1026.87 42.324 1011.98 36.8628 991.413 36.8628C970.934 36.8628 956.052 42.324 946.768 53.2463Z" fill="#0745A1"/>
<path d="M24.8065 259.049V277.548H19.0723V228.603H32.5204C37.754 228.603 41.8043 229.877 44.6714 232.425C47.5613 234.974 49.0062 238.569 49.0062 243.211C49.0062 247.853 47.402 251.653 44.1936 254.611C41.0079 257.57 36.6959 259.049 31.2575 259.049H24.8065ZM24.8065 233.791V253.86H30.8138C34.7731 253.86 37.7881 252.962 39.8588 251.164C41.9522 249.344 42.999 246.784 42.999 243.484C42.999 237.022 39.1762 233.791 31.5305 233.791H24.8065Z" fill="black"/>
<path d="M85.596 261.472H60.9184C61.0094 265.363 62.0561 268.367 64.0586 270.483C66.061 272.599 68.8143 273.657 72.3186 273.657C76.2552 273.657 79.8732 272.36 83.1726 269.766V275.022C80.1007 277.252 76.039 278.367 70.9874 278.367C66.0496 278.367 62.1699 276.786 59.3483 273.623C56.5267 270.437 55.1159 265.966 55.1159 260.209C55.1159 254.771 56.6519 250.345 59.7238 246.932C62.8184 243.496 66.6526 241.778 71.2263 241.778C75.8001 241.778 79.3384 243.257 81.8415 246.215C84.3445 249.173 85.596 253.28 85.596 258.537V261.472ZM79.8618 256.728C79.839 253.496 79.054 250.982 77.5067 249.184C75.9821 247.387 73.8545 246.488 71.1239 246.488C68.4844 246.488 66.243 247.432 64.3999 249.321C62.5567 251.21 61.419 253.678 60.9867 256.728H79.8618Z" fill="black"/>
<path d="M131.845 277.548H126.316V248.741C125.815 250.197 125.042 252.336 123.995 255.157L115.257 277.548H110.239L101.229 255.157C100.751 253.951 99.9771 251.813 98.9076 248.741V277.548H94.0949V242.597H101.229L110.444 265.397C111.104 267.058 111.946 269.357 112.97 272.292L115.462 265.534L124.404 242.597H131.845V277.548Z" fill="black"/>
<path d="M157.786 278.367C152.62 278.367 148.49 276.74 145.396 273.487C142.324 270.21 140.788 265.875 140.788 260.482C140.788 254.611 142.392 250.026 145.601 246.727C148.809 243.427 153.144 241.778 158.605 241.778C163.816 241.778 167.877 243.382 170.79 246.59C173.725 249.799 175.193 254.247 175.193 259.936C175.193 265.511 173.612 269.982 170.449 273.35C167.309 276.695 163.088 278.367 157.786 278.367ZM158.195 246.488C154.6 246.488 151.756 247.717 149.662 250.174C147.569 252.609 146.522 255.977 146.522 260.277C146.522 264.419 147.58 267.684 149.696 270.073C151.813 272.463 154.646 273.657 158.195 273.657C161.813 273.657 164.589 272.485 166.524 270.142C168.48 267.798 169.459 264.464 169.459 260.141C169.459 255.772 168.48 252.404 166.524 250.038C164.589 247.671 161.813 246.488 158.195 246.488Z" fill="black"/>
<path d="M213.148 277.548H207.551V261.677H189.733V277.548H184.136V242.597H189.733V256.932H207.551V242.597H213.148V277.548Z" fill="black"/>
<path d="M246.427 247.375H235.949V277.548H230.351V247.375H219.838V242.597H246.427V247.375Z" fill="black"/>
<path d="M282.437 277.548H277.385V249.662C276.884 250.641 276.122 252.017 275.098 253.792L258.954 277.548H253.151V242.597H258.271V270.142C258.544 269.482 259.136 268.355 260.046 266.762L276.634 242.597H282.437V277.548Z" fill="black"/>
<path d="M299.503 272.497H299.366V293.625H293.769V242.597H299.366V248.741H299.503C302.256 244.099 306.284 241.778 311.586 241.778C316.091 241.778 319.607 243.348 322.132 246.488C324.658 249.605 325.921 253.792 325.921 259.049C325.921 264.897 324.499 269.584 321.655 273.111C318.81 276.615 314.919 278.367 309.981 278.367C305.453 278.367 301.96 276.411 299.503 272.497ZM299.366 258.4V263.281C299.366 266.171 300.299 268.628 302.165 270.654C304.054 272.656 306.443 273.657 309.333 273.657C312.723 273.657 315.374 272.36 317.286 269.766C319.22 267.172 320.187 263.565 320.187 258.946C320.187 255.055 319.288 252.006 317.49 249.799C315.693 247.592 313.258 246.488 310.186 246.488C306.932 246.488 304.315 247.626 302.336 249.901C300.356 252.154 299.366 254.987 299.366 258.4Z" fill="black"/>
<path d="M362.682 242.597L346.605 283.146C343.738 290.382 339.711 294 334.522 294C333.066 294 331.849 293.852 330.87 293.556V288.539C332.076 288.948 333.18 289.153 334.181 289.153C337.003 289.153 339.119 287.469 340.53 284.102L343.329 277.48L329.676 242.597H335.888L345.342 269.493C345.456 269.834 345.695 270.722 346.059 272.155H346.264C346.378 271.609 346.605 270.745 346.947 269.561L356.879 242.597H362.682Z" fill="black"/>
<path d="M396.814 261.472H372.136C372.227 265.363 373.274 268.367 375.276 270.483C377.279 272.599 380.032 273.657 383.536 273.657C387.473 273.657 391.091 272.36 394.39 269.766V275.022C391.319 277.252 387.257 278.367 382.205 278.367C377.267 278.367 373.388 276.786 370.566 273.623C367.745 270.437 366.334 265.966 366.334 260.209C366.334 254.771 367.87 250.345 370.942 246.932C374.036 243.496 377.87 241.778 382.444 241.778C387.018 241.778 390.556 243.257 393.059 246.215C395.562 249.173 396.814 253.28 396.814 258.537V261.472ZM391.08 256.728C391.057 253.496 390.272 250.982 388.724 249.184C387.2 247.387 385.072 246.488 382.342 246.488C379.702 246.488 377.461 247.432 375.618 249.321C373.775 251.21 372.637 253.678 372.204 256.728H391.08Z" fill="black"/>
<path d="M443.063 277.548H437.534V248.741C437.033 250.197 436.259 252.336 435.213 255.157L426.475 277.548H421.457L412.446 255.157C411.969 253.951 411.195 251.813 410.125 248.741V277.548H405.313V242.597H412.446L421.662 265.397C422.322 267.058 423.164 269.357 424.188 272.292L426.68 265.534L435.622 242.597H443.063V277.548Z" fill="black"/>
<path d="M495.524 247.375H485.046V277.548H479.448V247.375H468.935V242.597H495.524V247.375Z" fill="black"/>
<path d="M530.339 261.472H505.662C505.753 265.363 506.799 268.367 508.802 270.483C510.804 272.599 513.557 273.657 517.062 273.657C520.998 273.657 524.616 272.36 527.916 269.766V275.022C524.844 277.252 520.782 278.367 515.731 278.367C510.793 278.367 506.913 276.786 504.091 273.623C501.27 270.437 499.859 265.966 499.859 260.209C499.859 254.771 501.395 250.345 504.467 246.932C507.562 243.496 511.396 241.778 515.969 241.778C520.543 241.778 524.082 243.257 526.585 246.215C529.088 249.173 530.339 253.28 530.339 258.537V261.472ZM524.605 256.728C524.582 253.496 523.797 250.982 522.25 249.184C520.725 247.387 518.598 246.488 515.867 246.488C513.228 246.488 510.986 247.432 509.143 249.321C507.3 251.21 506.162 253.678 505.73 256.728H524.605Z" fill="black"/>
<path d="M564.369 242.597L552.628 260.277L564.164 277.548H557.645L550.784 266.216C550.352 265.511 549.84 264.624 549.248 263.554H549.112C548.998 263.759 548.463 264.646 547.508 266.216L540.511 277.548H534.06L545.972 260.414L534.572 242.597H541.091L547.849 254.543C548.35 255.431 548.839 256.341 549.317 257.274H549.453L558.191 242.597H564.369Z" fill="black"/>
<path d="M599.935 277.548H594.337V261.677H576.52V277.548H570.922V242.597H576.52V256.932H594.337V242.597H599.935V277.548Z" fill="black"/>
<path d="M640.552 277.548H635.501V249.662C635 250.641 634.238 252.017 633.214 253.792L617.069 277.548H611.267V242.597H616.387V270.142C616.66 269.482 617.251 268.355 618.161 266.762L634.75 242.597H640.552V277.548Z" fill="black"/>
<path d="M680.896 277.548H673.046L657.618 260.755H657.482V277.548H651.884V242.597H657.482V258.605H657.618L672.295 242.597H679.634L663.421 259.458L680.896 277.548Z" fill="black"/>
<path d="M714.448 242.597L698.372 283.146C695.505 290.382 691.478 294 686.289 294C684.833 294 683.616 293.852 682.637 293.556V288.539C683.843 288.948 684.947 289.153 685.948 289.153C688.77 289.153 690.886 287.469 692.297 284.102L695.096 277.48L681.443 242.597H687.655L697.109 269.493C697.223 269.834 697.462 270.722 697.826 272.155H698.031C698.145 271.609 698.372 270.745 698.714 269.561L708.646 242.597H714.448Z" fill="black"/>
<path d="M763.497 275.944C760.811 277.56 757.626 278.367 753.94 278.367C748.956 278.367 744.929 276.752 741.857 273.521C738.808 270.267 737.283 266.057 737.283 260.892C737.283 255.135 738.933 250.516 742.232 247.034C745.532 243.53 749.935 241.778 755.441 241.778C758.513 241.778 761.221 242.347 763.565 243.484V249.218C760.971 247.398 758.195 246.488 755.237 246.488C751.664 246.488 748.729 247.774 746.43 250.345C744.155 252.893 743.017 256.25 743.017 260.414C743.017 264.51 744.087 267.741 746.226 270.107C748.387 272.474 751.277 273.657 754.895 273.657C757.944 273.657 760.811 272.645 763.497 270.619V275.944Z" fill="black"/>
<path d="M819.166 277.548H791.485V272.633H802.544V234.61L791.212 237.989V232.664L808.142 227.51V272.633H819.166V277.548Z" fill="black"/>
<path d="M829.03 276.729V271.336C831.761 272.884 834.651 273.657 837.7 273.657C842.137 273.657 845.585 271.871 848.042 268.298C850.522 264.726 851.763 259.652 851.763 253.075C851.717 253.098 851.672 253.098 851.626 253.075C849.533 257.285 845.892 259.39 840.704 259.39C836.517 259.39 833.081 257.968 830.396 255.123C827.711 252.279 826.368 248.615 826.368 244.133C826.368 239.354 827.836 235.44 830.771 232.391C833.729 229.319 837.507 227.783 842.103 227.783C846.927 227.783 850.682 229.695 853.367 233.518C856.075 237.318 857.428 242.859 857.428 250.14C857.428 259.174 855.676 266.137 852.172 271.029C848.668 275.921 843.798 278.367 837.564 278.367C834.287 278.367 831.442 277.821 829.03 276.729ZM841.591 232.528C838.883 232.528 836.619 233.552 834.799 235.6C833.001 237.625 832.102 240.208 832.102 243.348C832.102 246.784 832.99 249.492 834.765 251.471C836.54 253.428 838.94 254.407 841.967 254.407C844.606 254.407 846.836 253.508 848.656 251.71C850.5 249.913 851.421 247.717 851.421 245.123C851.421 241.414 850.511 238.387 848.691 236.043C846.87 233.7 844.504 232.528 841.591 232.528Z" fill="black"/>
<path d="M866.712 276.729V271.336C869.443 272.884 872.333 273.657 875.382 273.657C879.819 273.657 883.267 271.871 885.724 268.298C888.204 264.726 889.445 259.652 889.445 253.075C889.399 253.098 889.354 253.098 889.308 253.075C887.215 257.285 883.574 259.39 878.386 259.39C874.199 259.39 870.763 257.968 868.078 255.123C865.393 252.279 864.05 248.615 864.05 244.133C864.05 239.354 865.518 235.44 868.453 232.391C871.411 229.319 875.189 227.783 879.785 227.783C884.609 227.783 888.364 229.695 891.049 233.518C893.757 237.318 895.11 242.859 895.11 250.14C895.11 259.174 893.358 266.137 889.854 271.029C886.35 275.921 881.48 278.367 875.245 278.367C871.969 278.367 869.124 277.821 866.712 276.729ZM879.273 232.528C876.565 232.528 874.301 233.552 872.481 235.6C870.683 237.625 869.784 240.208 869.784 243.348C869.784 246.784 870.672 249.492 872.447 251.471C874.222 253.428 876.622 254.407 879.649 254.407C882.288 254.407 884.518 253.508 886.339 251.71C888.182 249.913 889.103 247.717 889.103 245.123C889.103 241.414 888.193 238.387 886.373 236.043C884.552 233.7 882.186 232.528 879.273 232.528Z" fill="black"/>
<path d="M933.816 264.544H927.536V277.548H922.007V264.544H899.002V260.892L920.778 228.603H927.536V260.004H933.816V264.544ZM922.007 260.004V238.842C922.007 237.34 922.052 235.657 922.143 233.791H922.007C921.688 234.61 921.062 235.861 920.129 237.545L905.077 260.004H922.007Z" fill="black"/>
<path d="M980.475 247.375H966.652V277.548H961.054V242.597H980.475V247.375Z" fill="black"/>
<path d="M1002.42 278.367C997.257 278.367 993.127 276.74 990.032 273.487C986.96 270.21 985.424 265.875 985.424 260.482C985.424 254.611 987.029 250.026 990.237 246.727C993.445 243.427 997.78 241.778 1003.24 241.778C1008.45 241.778 1012.51 243.382 1015.43 246.59C1018.36 249.799 1019.83 254.247 1019.83 259.936C1019.83 265.511 1018.25 269.982 1015.09 273.35C1011.95 276.695 1007.72 278.367 1002.42 278.367ZM1002.83 246.488C999.237 246.488 996.392 247.717 994.299 250.174C992.205 252.609 991.159 255.977 991.159 260.277C991.159 264.419 992.217 267.684 994.333 270.073C996.449 272.463 999.282 273.657 1002.83 273.657C1006.45 273.657 1009.23 272.485 1011.16 270.142C1013.12 267.798 1014.1 264.464 1014.1 260.141C1014.1 255.772 1013.12 252.404 1011.16 250.038C1009.23 247.671 1006.45 246.488 1002.83 246.488Z" fill="black"/>
<path d="M1059.25 290.28H1054.51V277.548H1028.5V290.28H1023.72V272.804H1026.83C1032.79 264.203 1035.82 254.134 1035.91 242.597H1054.06V272.804H1059.25V290.28ZM1048.47 272.804V247.341H1040.72C1040.1 256.762 1037.45 265.249 1032.77 272.804H1048.47Z" fill="black"/>
<path d="M1092.02 277.548H1086.42V272.087H1086.29C1083.85 276.274 1080.27 278.367 1075.53 278.367C1072.05 278.367 1069.32 277.446 1067.34 275.603C1065.38 273.76 1064.41 271.313 1064.41 268.264C1064.41 261.734 1068.25 257.934 1075.94 256.864L1086.42 255.396C1086.42 249.457 1084.02 246.488 1079.22 246.488C1075.01 246.488 1071.21 247.921 1067.82 250.789V245.054C1071.26 242.87 1075.21 241.778 1079.7 241.778C1087.91 241.778 1092.02 246.124 1092.02 254.816V277.548ZM1086.42 259.868L1077.99 261.028C1075.4 261.392 1073.44 262.041 1072.12 262.974C1070.8 263.884 1070.14 265.511 1070.14 267.855C1070.14 269.561 1070.74 270.961 1071.95 272.053C1073.18 273.122 1074.81 273.657 1076.83 273.657C1079.61 273.657 1081.89 272.69 1083.69 270.756C1085.51 268.799 1086.42 266.33 1086.42 263.349V259.868Z" fill="black"/>
</svg>
